<mxfile host="app.diagrams.net" agent="Mozilla/5.0 (Windows NT 10.0; Win64; x64) AppleWebKit/537.36 (KHTML, like Gecko) Chrome/132.0.0.0 Safari/537.36" version="26.0.11">
  <diagram id="C5RBs43oDa-KdzZeNtuy" name="Page-1">
    <mxGraphModel dx="6461" dy="3342" grid="1" gridSize="11" guides="1" tooltips="1" connect="1" arrows="1" fold="1" page="1" pageScale="1" pageWidth="827" pageHeight="1169" math="0" shadow="0">
      <root>
        <mxCell id="WIyWlLk6GJQsqaUBKTNV-0" />
        <mxCell id="WIyWlLk6GJQsqaUBKTNV-1" parent="WIyWlLk6GJQsqaUBKTNV-0" />
        <mxCell id="W6fHf8CLWItxslxqhmVu-6" style="edgeStyle=orthogonalEdgeStyle;rounded=0;orthogonalLoop=1;jettySize=auto;html=1;exitX=0.5;exitY=0;exitDx=0;exitDy=0;entryX=0.5;entryY=1;entryDx=0;entryDy=0;" parent="WIyWlLk6GJQsqaUBKTNV-1" source="-r5LTkymAWRdCUDFBP9O-0" target="W6fHf8CLWItxslxqhmVu-4" edge="1">
          <mxGeometry relative="1" as="geometry" />
        </mxCell>
        <mxCell id="-r5LTkymAWRdCUDFBP9O-0" value="&lt;font style=&quot;font-size: 28px;&quot;&gt;m_photons&lt;/font&gt;" style="rounded=0;whiteSpace=wrap;html=1;" parent="WIyWlLk6GJQsqaUBKTNV-1" vertex="1">
          <mxGeometry x="-90" y="740" width="180" height="100" as="geometry" />
        </mxCell>
        <mxCell id="-r5LTkymAWRdCUDFBP9O-1" value="&lt;font style=&quot;font-size: 17px;&quot;&gt;m_system&lt;/font&gt;" style="rounded=0;whiteSpace=wrap;html=1;fillColor=#fff2cc;strokeColor=#d6b656;" parent="WIyWlLk6GJQsqaUBKTNV-1" vertex="1">
          <mxGeometry x="-827" width="120" height="50" as="geometry" />
        </mxCell>
        <mxCell id="-r5LTkymAWRdCUDFBP9O-2" value="&lt;font style=&quot;font-size: 17px;&quot;&gt;m_parameters&lt;/font&gt;" style="rounded=0;whiteSpace=wrap;html=1;fillColor=#fff2cc;strokeColor=#d6b656;" parent="WIyWlLk6GJQsqaUBKTNV-1" vertex="1">
          <mxGeometry x="-827" y="60" width="120" height="50" as="geometry" />
        </mxCell>
        <mxCell id="-r5LTkymAWRdCUDFBP9O-3" value="&lt;font style=&quot;font-size: 17px;&quot;&gt;m_math&lt;/font&gt;" style="rounded=0;whiteSpace=wrap;html=1;fillColor=#fff2cc;strokeColor=#d6b656;" parent="WIyWlLk6GJQsqaUBKTNV-1" vertex="1">
          <mxGeometry x="-827" y="120" width="120" height="50" as="geometry" />
        </mxCell>
        <mxCell id="-r5LTkymAWRdCUDFBP9O-6" value="&lt;font style=&quot;font-size: 17px;&quot;&gt;m_species_define&lt;/font&gt;" style="rounded=0;whiteSpace=wrap;html=1;fillColor=#d5e8d4;strokeColor=#82b366;" parent="WIyWlLk6GJQsqaUBKTNV-1" vertex="1">
          <mxGeometry x="-852" y="220" width="170" height="60" as="geometry" />
        </mxCell>
        <mxCell id="-r5LTkymAWRdCUDFBP9O-7" value="&lt;font style=&quot;font-size: 17px;&quot;&gt;m_qed_coulomb&lt;/font&gt;" style="rounded=0;whiteSpace=wrap;html=1;" parent="WIyWlLk6GJQsqaUBKTNV-1" vertex="1">
          <mxGeometry x="-852" y="630" width="170" height="60" as="geometry" />
        </mxCell>
        <mxCell id="-r5LTkymAWRdCUDFBP9O-8" value="&lt;font style=&quot;font-size: 17px;&quot;&gt;m_vdf_define&lt;/font&gt;" style="rounded=0;whiteSpace=wrap;html=1;" parent="WIyWlLk6GJQsqaUBKTNV-1" vertex="1">
          <mxGeometry x="-852" y="560" width="170" height="60" as="geometry" />
        </mxCell>
        <mxCell id="-r5LTkymAWRdCUDFBP9O-9" value="&lt;font style=&quot;font-size: 17px;&quot;&gt;m_species_define&lt;/font&gt;" style="rounded=0;whiteSpace=wrap;html=1;" parent="WIyWlLk6GJQsqaUBKTNV-1" vertex="1">
          <mxGeometry x="-852" y="360" width="170" height="60" as="geometry" />
        </mxCell>
        <mxCell id="-r5LTkymAWRdCUDFBP9O-10" value="&lt;font style=&quot;font-size: 17px;&quot;&gt;m_emf_define&lt;/font&gt;" style="rounded=0;whiteSpace=wrap;html=1;fillColor=#d5e8d4;strokeColor=#82b366;" parent="WIyWlLk6GJQsqaUBKTNV-1" vertex="1">
          <mxGeometry x="-852" y="430" width="170" height="60" as="geometry" />
        </mxCell>
        <mxCell id="-r5LTkymAWRdCUDFBP9O-11" value="&lt;font style=&quot;font-size: 17px;&quot;&gt;m_qed&lt;/font&gt;" style="rounded=0;whiteSpace=wrap;html=1;" parent="WIyWlLk6GJQsqaUBKTNV-1" vertex="1">
          <mxGeometry x="-827" y="500" width="120" height="50" as="geometry" />
        </mxCell>
        <mxCell id="-r5LTkymAWRdCUDFBP9O-12" value="&lt;font style=&quot;font-size: 17px;&quot;&gt;m_photons_define&lt;/font&gt;" style="rounded=0;whiteSpace=wrap;html=1;fillColor=#d5e8d4;strokeColor=#82b366;" parent="WIyWlLk6GJQsqaUBKTNV-1" vertex="1">
          <mxGeometry x="-852" y="290" width="170" height="60" as="geometry" />
        </mxCell>
        <mxCell id="-r5LTkymAWRdCUDFBP9O-13" value="&lt;font style=&quot;font-size: 17px;&quot;&gt;m_species_charge&lt;/font&gt;" style="rounded=0;whiteSpace=wrap;html=1;" parent="WIyWlLk6GJQsqaUBKTNV-1" vertex="1">
          <mxGeometry x="-852" y="700" width="170" height="60" as="geometry" />
        </mxCell>
        <mxCell id="-r5LTkymAWRdCUDFBP9O-15" value="&lt;font style=&quot;font-size: 17px;&quot;&gt;m_species_define_qed&lt;/font&gt;" style="rounded=0;whiteSpace=wrap;html=1;fillColor=#d5e8d4;strokeColor=#82b366;" parent="WIyWlLk6GJQsqaUBKTNV-1" vertex="1">
          <mxGeometry x="-862" y="840" width="190" height="60" as="geometry" />
        </mxCell>
        <mxCell id="-r5LTkymAWRdCUDFBP9O-16" value="&lt;font style=&quot;font-size: 17px;&quot;&gt;m_species_comm&lt;/font&gt;" style="rounded=0;whiteSpace=wrap;html=1;fillColor=#d5e8d4;strokeColor=#82b366;" parent="WIyWlLk6GJQsqaUBKTNV-1" vertex="1">
          <mxGeometry x="-870" y="1000" width="198" height="60" as="geometry" />
        </mxCell>
        <mxCell id="-r5LTkymAWRdCUDFBP9O-17" value="&lt;font style=&quot;font-size: 17px;&quot;&gt;m_photons_diagnostics&lt;/font&gt;" style="rounded=0;whiteSpace=wrap;html=1;fillColor=#fff2cc;strokeColor=#d6b656;" parent="WIyWlLk6GJQsqaUBKTNV-1" vertex="1">
          <mxGeometry x="-862" y="1070" width="190" height="60" as="geometry" />
        </mxCell>
        <mxCell id="-r5LTkymAWRdCUDFBP9O-22" style="edgeStyle=orthogonalEdgeStyle;rounded=0;orthogonalLoop=1;jettySize=auto;html=1;exitX=0.5;exitY=1;exitDx=0;exitDy=0;" parent="WIyWlLk6GJQsqaUBKTNV-1" source="-r5LTkymAWRdCUDFBP9O-2" target="-r5LTkymAWRdCUDFBP9O-2" edge="1">
          <mxGeometry relative="1" as="geometry" />
        </mxCell>
        <mxCell id="-r5LTkymAWRdCUDFBP9O-24" value="" style="endArrow=none;html=1;rounded=0;entryX=1;entryY=0.5;entryDx=0;entryDy=0;exitX=0;exitY=0;exitDx=0;exitDy=0;" parent="WIyWlLk6GJQsqaUBKTNV-1" source="-r5LTkymAWRdCUDFBP9O-0" target="-r5LTkymAWRdCUDFBP9O-1" edge="1">
          <mxGeometry width="50" height="50" relative="1" as="geometry">
            <mxPoint x="170" y="410" as="sourcePoint" />
            <mxPoint x="220" y="360" as="targetPoint" />
          </mxGeometry>
        </mxCell>
        <mxCell id="-r5LTkymAWRdCUDFBP9O-25" value="" style="endArrow=none;html=1;rounded=0;entryX=1;entryY=0.5;entryDx=0;entryDy=0;exitX=0;exitY=0;exitDx=0;exitDy=0;" parent="WIyWlLk6GJQsqaUBKTNV-1" source="-r5LTkymAWRdCUDFBP9O-0" edge="1">
          <mxGeometry width="50" height="50" relative="1" as="geometry">
            <mxPoint x="-280" y="450" as="sourcePoint" />
            <mxPoint x="-707" y="85" as="targetPoint" />
          </mxGeometry>
        </mxCell>
        <mxCell id="-r5LTkymAWRdCUDFBP9O-26" value="" style="endArrow=none;html=1;rounded=0;exitX=0;exitY=0;exitDx=0;exitDy=0;" parent="WIyWlLk6GJQsqaUBKTNV-1" source="-r5LTkymAWRdCUDFBP9O-0" edge="1">
          <mxGeometry width="50" height="50" relative="1" as="geometry">
            <mxPoint x="-280" y="575" as="sourcePoint" />
            <mxPoint x="-707" y="140" as="targetPoint" />
          </mxGeometry>
        </mxCell>
        <mxCell id="-r5LTkymAWRdCUDFBP9O-27" value="" style="endArrow=none;html=1;rounded=0;entryX=1;entryY=0.5;entryDx=0;entryDy=0;exitX=0;exitY=0.5;exitDx=0;exitDy=0;" parent="WIyWlLk6GJQsqaUBKTNV-1" source="-r5LTkymAWRdCUDFBP9O-0" target="-r5LTkymAWRdCUDFBP9O-11" edge="1">
          <mxGeometry width="50" height="50" relative="1" as="geometry">
            <mxPoint x="-260" y="430" as="sourcePoint" />
            <mxPoint x="-210" y="380" as="targetPoint" />
          </mxGeometry>
        </mxCell>
        <mxCell id="-r5LTkymAWRdCUDFBP9O-30" value="" style="endArrow=none;html=1;rounded=0;exitX=0;exitY=0.5;exitDx=0;exitDy=0;" parent="WIyWlLk6GJQsqaUBKTNV-1" source="-r5LTkymAWRdCUDFBP9O-0" edge="1">
          <mxGeometry width="50" height="50" relative="1" as="geometry">
            <mxPoint x="-280" y="480" as="sourcePoint" />
            <mxPoint x="-680" y="590" as="targetPoint" />
          </mxGeometry>
        </mxCell>
        <mxCell id="-r5LTkymAWRdCUDFBP9O-31" value="" style="endArrow=none;html=1;rounded=0;entryX=1;entryY=0.5;entryDx=0;entryDy=0;exitX=0;exitY=0.5;exitDx=0;exitDy=0;" parent="WIyWlLk6GJQsqaUBKTNV-1" source="-r5LTkymAWRdCUDFBP9O-0" target="-r5LTkymAWRdCUDFBP9O-7" edge="1">
          <mxGeometry width="50" height="50" relative="1" as="geometry">
            <mxPoint x="-83" y="600" as="sourcePoint" />
            <mxPoint x="-510" y="645" as="targetPoint" />
          </mxGeometry>
        </mxCell>
        <mxCell id="-r5LTkymAWRdCUDFBP9O-32" value="" style="endArrow=none;dashed=1;html=1;rounded=0;exitX=1;exitY=0.5;exitDx=0;exitDy=0;entryX=0;entryY=0.5;entryDx=0;entryDy=0;" parent="WIyWlLk6GJQsqaUBKTNV-1" source="-r5LTkymAWRdCUDFBP9O-12" target="-r5LTkymAWRdCUDFBP9O-0" edge="1">
          <mxGeometry width="50" height="50" relative="1" as="geometry">
            <mxPoint x="-410" y="430" as="sourcePoint" />
            <mxPoint x="-360" y="380" as="targetPoint" />
          </mxGeometry>
        </mxCell>
        <mxCell id="-r5LTkymAWRdCUDFBP9O-33" value="" style="endArrow=none;dashed=1;html=1;rounded=0;exitX=1;exitY=0.5;exitDx=0;exitDy=0;entryX=0;entryY=0.5;entryDx=0;entryDy=0;" parent="WIyWlLk6GJQsqaUBKTNV-1" source="-r5LTkymAWRdCUDFBP9O-9" target="-r5LTkymAWRdCUDFBP9O-0" edge="1">
          <mxGeometry width="50" height="50" relative="1" as="geometry">
            <mxPoint x="-400" y="440" as="sourcePoint" />
            <mxPoint x="-350" y="390" as="targetPoint" />
          </mxGeometry>
        </mxCell>
        <mxCell id="-r5LTkymAWRdCUDFBP9O-34" value="" style="endArrow=none;dashed=1;html=1;rounded=0;exitX=1;exitY=0.5;exitDx=0;exitDy=0;entryX=0;entryY=0.5;entryDx=0;entryDy=0;" parent="WIyWlLk6GJQsqaUBKTNV-1" source="-r5LTkymAWRdCUDFBP9O-10" target="-r5LTkymAWRdCUDFBP9O-0" edge="1">
          <mxGeometry width="50" height="50" relative="1" as="geometry">
            <mxPoint x="-550" y="450" as="sourcePoint" />
            <mxPoint x="-500" y="400" as="targetPoint" />
          </mxGeometry>
        </mxCell>
        <mxCell id="-r5LTkymAWRdCUDFBP9O-35" value="" style="endArrow=none;dashed=1;html=1;rounded=0;exitX=1;exitY=0.5;exitDx=0;exitDy=0;entryX=0;entryY=0.5;entryDx=0;entryDy=0;" parent="WIyWlLk6GJQsqaUBKTNV-1" source="-r5LTkymAWRdCUDFBP9O-13" target="-r5LTkymAWRdCUDFBP9O-0" edge="1">
          <mxGeometry width="50" height="50" relative="1" as="geometry">
            <mxPoint x="-380" y="460" as="sourcePoint" />
            <mxPoint x="-310" y="590" as="targetPoint" />
          </mxGeometry>
        </mxCell>
        <mxCell id="-r5LTkymAWRdCUDFBP9O-36" value="" style="endArrow=none;dashed=1;html=1;rounded=0;entryX=1;entryY=0.5;entryDx=0;entryDy=0;exitX=0;exitY=0.5;exitDx=0;exitDy=0;" parent="WIyWlLk6GJQsqaUBKTNV-1" source="-r5LTkymAWRdCUDFBP9O-0" target="-r5LTkymAWRdCUDFBP9O-6" edge="1">
          <mxGeometry width="50" height="50" relative="1" as="geometry">
            <mxPoint x="-410" y="490" as="sourcePoint" />
            <mxPoint x="-360" y="440" as="targetPoint" />
          </mxGeometry>
        </mxCell>
        <mxCell id="-r5LTkymAWRdCUDFBP9O-37" value="" style="endArrow=none;dashed=1;html=1;rounded=0;exitX=1;exitY=0.5;exitDx=0;exitDy=0;entryX=0;entryY=1;entryDx=0;entryDy=0;" parent="WIyWlLk6GJQsqaUBKTNV-1" source="-r5LTkymAWRdCUDFBP9O-15" target="-r5LTkymAWRdCUDFBP9O-0" edge="1">
          <mxGeometry width="50" height="50" relative="1" as="geometry">
            <mxPoint x="-640" y="360" as="sourcePoint" />
            <mxPoint x="-590" y="310" as="targetPoint" />
          </mxGeometry>
        </mxCell>
        <mxCell id="-r5LTkymAWRdCUDFBP9O-43" value="" style="endArrow=none;dashed=1;html=1;rounded=0;exitX=1;exitY=0.5;exitDx=0;exitDy=0;entryX=0;entryY=1;entryDx=0;entryDy=0;" parent="WIyWlLk6GJQsqaUBKTNV-1" source="-r5LTkymAWRdCUDFBP9O-16" target="-r5LTkymAWRdCUDFBP9O-0" edge="1">
          <mxGeometry width="50" height="50" relative="1" as="geometry">
            <mxPoint x="-540" y="700" as="sourcePoint" />
            <mxPoint x="-280" y="510" as="targetPoint" />
          </mxGeometry>
        </mxCell>
        <mxCell id="-r5LTkymAWRdCUDFBP9O-44" value="" style="endArrow=none;html=1;rounded=0;exitX=1;exitY=0.5;exitDx=0;exitDy=0;entryX=0;entryY=1;entryDx=0;entryDy=0;" parent="WIyWlLk6GJQsqaUBKTNV-1" source="-r5LTkymAWRdCUDFBP9O-17" target="-r5LTkymAWRdCUDFBP9O-0" edge="1">
          <mxGeometry width="50" height="50" relative="1" as="geometry">
            <mxPoint x="-570" y="700" as="sourcePoint" />
            <mxPoint x="-520" y="650" as="targetPoint" />
          </mxGeometry>
        </mxCell>
        <mxCell id="-r5LTkymAWRdCUDFBP9O-45" value="" style="strokeWidth=2;html=1;shape=mxgraph.flowchart.annotation_2;align=left;labelPosition=right;pointerEvents=1;" parent="WIyWlLk6GJQsqaUBKTNV-1" vertex="1">
          <mxGeometry x="-1000" y="840" width="50" height="400" as="geometry" />
        </mxCell>
        <mxCell id="-r5LTkymAWRdCUDFBP9O-46" value="Called at the subroutine &quot;create_pairs_betheheitler&quot;" style="rounded=0;whiteSpace=wrap;html=1;" parent="WIyWlLk6GJQsqaUBKTNV-1" vertex="1">
          <mxGeometry x="-1170" y="1020" width="150" height="60" as="geometry" />
        </mxCell>
        <mxCell id="-r5LTkymAWRdCUDFBP9O-48" value="" style="strokeWidth=2;html=1;shape=mxgraph.flowchart.annotation_2;align=left;labelPosition=right;pointerEvents=1;" parent="WIyWlLk6GJQsqaUBKTNV-1" vertex="1">
          <mxGeometry x="-1000" width="50" height="760" as="geometry" />
        </mxCell>
        <mxCell id="W6fHf8CLWItxslxqhmVu-4" value="" style="rounded=0;whiteSpace=wrap;html=1;" parent="WIyWlLk6GJQsqaUBKTNV-1" vertex="1">
          <mxGeometry x="-60" y="210" width="120" height="60" as="geometry" />
        </mxCell>
        <mxCell id="W6fHf8CLWItxslxqhmVu-5" value="" style="endArrow=none;html=1;rounded=0;exitX=1;exitY=0.5;exitDx=0;exitDy=0;entryX=0;entryY=0.5;entryDx=0;entryDy=0;" parent="WIyWlLk6GJQsqaUBKTNV-1" source="-r5LTkymAWRdCUDFBP9O-1" target="W6fHf8CLWItxslxqhmVu-4" edge="1">
          <mxGeometry width="50" height="50" relative="1" as="geometry">
            <mxPoint x="-1020" y="720" as="sourcePoint" />
            <mxPoint x="-970" y="670" as="targetPoint" />
          </mxGeometry>
        </mxCell>
        <mxCell id="W6fHf8CLWItxslxqhmVu-7" value="" style="endArrow=none;html=1;rounded=0;entryX=0;entryY=0.5;entryDx=0;entryDy=0;exitX=1;exitY=0.5;exitDx=0;exitDy=0;" parent="WIyWlLk6GJQsqaUBKTNV-1" source="-r5LTkymAWRdCUDFBP9O-2" target="W6fHf8CLWItxslxqhmVu-4" edge="1">
          <mxGeometry width="50" height="50" relative="1" as="geometry">
            <mxPoint x="-440" y="550" as="sourcePoint" />
            <mxPoint x="-390" y="500" as="targetPoint" />
          </mxGeometry>
        </mxCell>
        <mxCell id="W6fHf8CLWItxslxqhmVu-8" value="" style="endArrow=none;dashed=1;html=1;rounded=0;entryX=0;entryY=0.5;entryDx=0;entryDy=0;exitX=1;exitY=0.5;exitDx=0;exitDy=0;" parent="WIyWlLk6GJQsqaUBKTNV-1" source="-r5LTkymAWRdCUDFBP9O-12" target="W6fHf8CLWItxslxqhmVu-4" edge="1">
          <mxGeometry width="50" height="50" relative="1" as="geometry">
            <mxPoint x="-580" y="390" as="sourcePoint" />
            <mxPoint x="-200" y="500" as="targetPoint" />
          </mxGeometry>
        </mxCell>
        <mxCell id="W6fHf8CLWItxslxqhmVu-9" value="" style="endArrow=none;dashed=1;html=1;rounded=0;entryX=0;entryY=0.5;entryDx=0;entryDy=0;exitX=1;exitY=0.5;exitDx=0;exitDy=0;" parent="WIyWlLk6GJQsqaUBKTNV-1" source="-r5LTkymAWRdCUDFBP9O-9" target="W6fHf8CLWItxslxqhmVu-4" edge="1">
          <mxGeometry width="50" height="50" relative="1" as="geometry">
            <mxPoint x="-520" y="550" as="sourcePoint" />
            <mxPoint x="-470" y="500" as="targetPoint" />
          </mxGeometry>
        </mxCell>
        <mxCell id="W6fHf8CLWItxslxqhmVu-14" value="" style="triangle;whiteSpace=wrap;html=1;" parent="WIyWlLk6GJQsqaUBKTNV-1" vertex="1">
          <mxGeometry x="-852.5" y="290" width="10" height="10" as="geometry" />
        </mxCell>
        <mxCell id="W6fHf8CLWItxslxqhmVu-24" value="p_cell_near" style="text;whiteSpace=wrap;" parent="WIyWlLk6GJQsqaUBKTNV-1" vertex="1">
          <mxGeometry x="-817" y="260" width="100" height="40" as="geometry" />
        </mxCell>
        <mxCell id="W6fHf8CLWItxslxqhmVu-25" value="t_photons" style="text;whiteSpace=wrap;" parent="WIyWlLk6GJQsqaUBKTNV-1" vertex="1">
          <mxGeometry x="-812" y="330" width="90" height="40" as="geometry" />
        </mxCell>
        <mxCell id="W6fHf8CLWItxslxqhmVu-27" value="p_ene_recalc" style="text;whiteSpace=wrap;" parent="WIyWlLk6GJQsqaUBKTNV-1" vertex="1">
          <mxGeometry x="-822" y="400" width="110" height="40" as="geometry" />
        </mxCell>
        <mxCell id="W6fHf8CLWItxslxqhmVu-28" value="t_emf" style="text;whiteSpace=wrap;" parent="WIyWlLk6GJQsqaUBKTNV-1" vertex="1">
          <mxGeometry x="-797" y="470" width="60" height="40" as="geometry" />
        </mxCell>
        <mxCell id="W6fHf8CLWItxslxqhmVu-29" value="deposit_rho" style="text;whiteSpace=wrap;" parent="WIyWlLk6GJQsqaUBKTNV-1" vertex="1">
          <mxGeometry x="-817" y="740" width="100" height="40" as="geometry" />
        </mxCell>
        <mxCell id="W6fHf8CLWItxslxqhmVu-33" value="t_species_qed" style="text;whiteSpace=wrap;" parent="WIyWlLk6GJQsqaUBKTNV-1" vertex="1">
          <mxGeometry x="-812" y="880" width="110" height="40" as="geometry" />
        </mxCell>
        <mxCell id="W6fHf8CLWItxslxqhmVu-34" value="&lt;font style=&quot;font-size: 17px;&quot;&gt;m_species_define&lt;/font&gt;" style="rounded=0;whiteSpace=wrap;html=1;fillColor=#d5e8d4;strokeColor=#82b366;" parent="WIyWlLk6GJQsqaUBKTNV-1" vertex="1">
          <mxGeometry x="-852" y="920" width="170" height="60" as="geometry" />
        </mxCell>
        <mxCell id="W6fHf8CLWItxslxqhmVu-35" value="t_species" style="text;whiteSpace=wrap;" parent="WIyWlLk6GJQsqaUBKTNV-1" vertex="1">
          <mxGeometry x="-807" y="960" width="80" height="40" as="geometry" />
        </mxCell>
        <mxCell id="W6fHf8CLWItxslxqhmVu-36" value="only : t_part_idx, remove_particles" style="text;whiteSpace=wrap;" parent="WIyWlLk6GJQsqaUBKTNV-1" vertex="1">
          <mxGeometry x="-867" y="1040" width="220" height="40" as="geometry" />
        </mxCell>
        <mxCell id="W6fHf8CLWItxslxqhmVu-39" value="&lt;div style=&quot;&quot;&gt;&lt;span style=&quot;background-color: initial;&quot;&gt;In create_pairs subroutine:&lt;/span&gt;&lt;/div&gt;&lt;div&gt;&lt;div style=&quot;&quot;&gt;&lt;span style=&quot;background-color: initial;&quot;&gt;use m_species_define_qed, only : t_species_qed&lt;/span&gt;&lt;/div&gt;&lt;span style=&quot;&quot;&gt;&lt;div style=&quot;&quot;&gt;&lt;span style=&quot;background-color: initial;&quot;&gt;use m_species_comm, only : t_part_idx, remove_particles&lt;/span&gt;&lt;/div&gt;&lt;/span&gt;&lt;span style=&quot;&quot;&gt;&lt;div style=&quot;&quot;&gt;&lt;span style=&quot;background-color: initial;&quot;&gt;use m_photons_diagnostics&lt;/span&gt;&lt;/div&gt;&lt;/span&gt;&lt;/div&gt;" style="rounded=0;whiteSpace=wrap;html=1;align=left;" parent="WIyWlLk6GJQsqaUBKTNV-1" vertex="1">
          <mxGeometry x="-922.5" y="1310" width="331" height="70" as="geometry" />
        </mxCell>
        <mxCell id="W6fHf8CLWItxslxqhmVu-40" value="In add_particle_index at create_pairs:&lt;div&gt;&lt;span style=&quot;text-align: left;&quot;&gt;use m_species_define&amp;nbsp;&lt;/span&gt;&lt;br&gt;&lt;/div&gt;" style="rounded=0;whiteSpace=wrap;html=1;" parent="WIyWlLk6GJQsqaUBKTNV-1" vertex="1">
          <mxGeometry x="-842.5" y="1380" width="154.5" height="60" as="geometry" />
        </mxCell>
        <mxCell id="W6fHf8CLWItxslxqhmVu-41" value="&lt;div style=&quot;text-align: left;&quot;&gt;&lt;span style=&quot;background-color: initial;&quot;&gt;in advance_photons subroutine:&lt;/span&gt;&lt;/div&gt;&lt;div&gt;&lt;div style=&quot;text-align: left;&quot;&gt;&lt;span style=&quot;background-color: initial;&quot;&gt;use m_system&lt;/span&gt;&lt;/div&gt;&lt;span style=&quot;&quot;&gt;&lt;div style=&quot;text-align: left;&quot;&gt;&lt;span style=&quot;background-color: initial;&quot;&gt;&amp;nbsp; &amp;nbsp; use m_parameters&lt;/span&gt;&lt;/div&gt;&lt;/span&gt;&lt;span style=&quot;&quot;&gt;&lt;div style=&quot;text-align: left;&quot;&gt;&lt;span style=&quot;background-color: initial;&quot;&gt;&amp;nbsp; &amp;nbsp; use m_photons_define, only : t_photons&lt;/span&gt;&lt;/div&gt;&lt;/span&gt;&lt;span style=&quot;&quot;&gt;&lt;div style=&quot;text-align: left;&quot;&gt;&lt;span style=&quot;background-color: initial;&quot;&gt;&amp;nbsp; &amp;nbsp; use m_species_define, only : p_ene_recalc&lt;/span&gt;&lt;/div&gt;&lt;/span&gt;&lt;span style=&quot;&quot;&gt;&lt;div style=&quot;text-align: left;&quot;&gt;&lt;span style=&quot;background-color: initial;&quot;&gt;&amp;nbsp; &amp;nbsp; use m_species_define_qed, only : t_species_qed&lt;/span&gt;&lt;/div&gt;&lt;/span&gt;&lt;span style=&quot;&quot;&gt;&lt;div style=&quot;text-align: left;&quot;&gt;&lt;span style=&quot;background-color: initial;&quot;&gt;&amp;nbsp; &amp;nbsp; use m_emf_define, only: t_emf&lt;/span&gt;&lt;/div&gt;&lt;/span&gt;&lt;span style=&quot;&quot;&gt;&lt;div style=&quot;text-align: left;&quot;&gt;&lt;span style=&quot;background-color: initial;&quot;&gt;&amp;nbsp; &amp;nbsp; use m_photons&lt;/span&gt;&lt;/div&gt;&lt;/span&gt;&lt;span style=&quot;&quot;&gt;&lt;div style=&quot;text-align: left;&quot;&gt;&lt;span style=&quot;background-color: initial;&quot;&gt;&amp;nbsp; &amp;nbsp; use m_species_define, only : p_ene_recalc&lt;/span&gt;&lt;/div&gt;&lt;/span&gt;&lt;span style=&quot;&quot;&gt;&lt;div style=&quot;text-align: left;&quot;&gt;&lt;span style=&quot;background-color: initial;&quot;&gt;&amp;nbsp; &amp;nbsp; use m_species, only : sort&lt;/span&gt;&lt;/div&gt;&lt;/span&gt;&lt;/div&gt;" style="rounded=0;whiteSpace=wrap;html=1;" parent="WIyWlLk6GJQsqaUBKTNV-1" vertex="1">
          <mxGeometry x="-921.5" y="1500" width="330" height="170" as="geometry" />
        </mxCell>
        <mxCell id="W6fHf8CLWItxslxqhmVu-42" value="&lt;span style=&quot;text-align: left;&quot;&gt;&lt;font style=&quot;font-size: 17px;&quot;&gt;m_species_define&amp;nbsp;&lt;/font&gt;&lt;/span&gt;" style="rounded=0;whiteSpace=wrap;html=1;" parent="WIyWlLk6GJQsqaUBKTNV-1" vertex="1">
          <mxGeometry x="-840.25" y="1200" width="150" height="50" as="geometry" />
        </mxCell>
        <mxCell id="W6fHf8CLWItxslxqhmVu-43" value="Called at the beginning of m_photons" style="rounded=0;whiteSpace=wrap;html=1;" parent="WIyWlLk6GJQsqaUBKTNV-1" vertex="1">
          <mxGeometry x="-1155" y="360" width="120" height="60" as="geometry" />
        </mxCell>
        <mxCell id="W6fHf8CLWItxslxqhmVu-44" value="Called at the subroutine &quot;add_particle_index&quot; inside &quot;create_pairs_betheheitler&quot;" style="rounded=0;whiteSpace=wrap;html=1;" parent="WIyWlLk6GJQsqaUBKTNV-1" vertex="1">
          <mxGeometry x="-1170" y="1180" width="150" height="60" as="geometry" />
        </mxCell>
        <mxCell id="W6fHf8CLWItxslxqhmVu-45" value="" style="triangle;whiteSpace=wrap;html=1;" parent="WIyWlLk6GJQsqaUBKTNV-1" vertex="1">
          <mxGeometry x="-827" y="500" width="10" height="10" as="geometry" />
        </mxCell>
        <mxCell id="W6fHf8CLWItxslxqhmVu-49" value="" style="triangle;whiteSpace=wrap;html=1;" parent="WIyWlLk6GJQsqaUBKTNV-1" vertex="1">
          <mxGeometry x="-862.5" y="1070" width="10" height="10" as="geometry" />
        </mxCell>
        <mxCell id="W6fHf8CLWItxslxqhmVu-50" value="" style="triangle;whiteSpace=wrap;html=1;" parent="WIyWlLk6GJQsqaUBKTNV-1" vertex="1">
          <mxGeometry x="-862" y="840" width="10" height="10" as="geometry" />
        </mxCell>
        <mxCell id="W6fHf8CLWItxslxqhmVu-51" value="" style="triangle;whiteSpace=wrap;html=1;" parent="WIyWlLk6GJQsqaUBKTNV-1" vertex="1">
          <mxGeometry x="-852" y="630" width="10" height="10" as="geometry" />
        </mxCell>
        <mxCell id="OyU7tRVWb42amQiPNNo5-0" value="&lt;font style=&quot;font-size: 17px;&quot;&gt;m_betheheitler&lt;/font&gt;" style="rounded=1;whiteSpace=wrap;html=1;" parent="WIyWlLk6GJQsqaUBKTNV-1" vertex="1">
          <mxGeometry x="-1654" y="300" width="144" height="60" as="geometry" />
        </mxCell>
        <mxCell id="OyU7tRVWb42amQiPNNo5-4" value="" style="endArrow=none;html=1;rounded=0;fontSize=12;startSize=8;endSize=8;curved=1;entryX=1;entryY=0.5;entryDx=0;entryDy=0;exitX=0.5;exitY=0;exitDx=0;exitDy=0;" parent="WIyWlLk6GJQsqaUBKTNV-1" source="W6fHf8CLWItxslxqhmVu-14" target="OyU7tRVWb42amQiPNNo5-0" edge="1">
          <mxGeometry width="50" height="50" relative="1" as="geometry">
            <mxPoint x="-1496" y="699" as="sourcePoint" />
            <mxPoint x="-1446" y="649" as="targetPoint" />
          </mxGeometry>
        </mxCell>
        <mxCell id="OyU7tRVWb42amQiPNNo5-5" value="M_photons_define needs to be edited: should include the primakoff cross-section and other cross-sections into t_photons" style="text;html=1;align=center;verticalAlign=middle;resizable=0;points=[];autosize=1;strokeColor=none;fillColor=none;fontSize=16;" parent="WIyWlLk6GJQsqaUBKTNV-1" vertex="1">
          <mxGeometry x="-1978" y="76" width="880" height="33" as="geometry" />
        </mxCell>
      </root>
    </mxGraphModel>
  </diagram>
</mxfile>
